<svg width="100" height="82" viewBox="0 0 100 82" fill="none" xmlns="http://www.w3.org/2000/svg">
<path fill-rule="evenodd" clip-rule="evenodd" d="M0 4.14508C0 1.85581 1.85581 0 4.14508 0H95.8549C98.1442 0 100 1.85581 100 4.14508C100 6.43434 98.1442 8.29016 95.8549 8.29016H4.14508C1.85581 8.29016 0 6.43434 0 4.14508Z" fill="#1D1D1B"/>
<path fill-rule="evenodd" clip-rule="evenodd" d="M0 40.829C0 38.5398 1.85581 36.684 4.14508 36.684H95.8549C98.1442 36.684 100 38.5398 100 40.829C100 43.1183 98.1442 44.9741 95.8549 44.9741H4.14508C1.85581 44.9741 0 43.1183 0 40.829Z" fill="#1D1D1B"/>
<path fill-rule="evenodd" clip-rule="evenodd" d="M0 77.513C0 75.2237 1.85581 73.3679 4.14508 73.3679H95.8549C98.1442 73.3679 100 75.2237 100 77.513C100 79.8023 98.1442 81.6581 95.8549 81.6581H4.14508C1.85581 81.6581 0 79.8023 0 77.513Z" fill="#1D1D1B"/>
</svg>
