<svg width="101" height="101" viewBox="0 0 101 101" fill="none" xmlns="http://www.w3.org/2000/svg">
<path d="M50.3876 9.3425C63.7382 9.3425 65.3195 9.39331 70.5918 9.63386C75.4667 9.85636 78.1142 10.6709 79.8763 11.3554C82.2099 12.2625 83.8757 13.3461 85.6253 15.0957C87.3749 16.8453 88.4585 18.5111 89.3654 20.8447C90.0501 22.6068 90.8647 25.2543 91.0871 30.129C91.3277 35.4015 91.3785 36.9828 91.3785 50.3334C91.3785 63.6841 91.3277 65.2653 91.0871 70.5376C90.8647 75.4126 90.0501 78.06 89.3654 79.8221C88.4585 82.1558 87.3749 83.8216 85.6253 85.5711C83.8757 87.3207 82.2099 88.4044 79.8763 89.3112C78.1142 89.9959 75.4667 90.8105 70.5918 91.033C65.3203 91.2735 63.739 91.3243 50.3876 91.3243C37.0362 91.3243 35.4549 91.2735 30.1834 91.033C25.3085 90.8105 22.661 89.9959 20.8991 89.3112C18.5653 88.4044 16.8995 87.3207 15.1499 85.5711C13.4003 83.8216 12.3167 82.1558 11.4098 79.8221C10.7251 78.06 9.91054 75.4126 9.68805 70.5378C9.4475 65.2653 9.39669 63.6841 9.39669 50.3334C9.39669 36.9828 9.4475 35.4015 9.68805 30.1292C9.91054 25.2543 10.7251 22.6068 11.4098 20.8447C12.3167 18.5111 13.4003 16.8453 15.1499 15.0957C16.8995 13.3461 18.5653 12.2625 20.8991 11.3554C22.661 10.6709 25.3085 9.85636 30.1832 9.63386C35.4557 9.39331 37.037 9.3425 50.3876 9.3425ZM50.3876 0.333313C36.8083 0.333313 35.1058 0.390872 29.7728 0.634202C24.4506 0.877136 20.8162 1.72224 17.6356 2.95835C14.3477 4.23613 11.5593 5.9458 8.77963 8.72545C5.99998 11.5051 4.29031 14.2935 3.01253 17.5814C1.77643 20.762 0.931319 24.3965 0.688385 29.7186C0.445055 35.0514 0.387695 36.7541 0.387695 50.3334C0.387695 63.9127 0.445055 65.6154 0.688385 70.9482C0.931319 76.2704 1.77643 79.9048 3.01253 83.0854C4.29031 86.3732 5.99998 89.1617 8.77963 91.9414C11.5593 94.721 14.3477 96.4307 17.6356 97.7085C20.8162 98.9446 24.4506 99.7897 29.7728 100.033C35.1058 100.276 36.8083 100.333 50.3876 100.333C63.9669 100.333 65.6696 100.276 71.0024 100.033C76.3246 99.7897 79.959 98.9446 83.1396 97.7085C86.4275 96.4307 89.2159 94.721 91.9956 91.9414C94.7752 89.1617 96.4849 86.3734 97.7627 83.0854C98.9988 79.9048 99.8439 76.2704 100.087 70.9482C100.33 65.6154 100.388 63.9127 100.388 50.3334C100.388 36.7541 100.33 35.0514 100.087 29.7186C99.8439 24.3965 98.9988 20.762 97.7627 17.5814C96.4849 14.2935 94.7752 11.5051 91.9956 8.72545C89.2159 5.9458 86.4275 4.23613 83.1396 2.95835C79.959 1.72224 76.3246 0.877136 71.0024 0.634202C65.6696 0.390872 63.9669 0.333313 50.3876 0.333313ZM50.3876 24.6577C36.2073 24.6577 24.7118 36.1531 24.7118 50.3334C24.7118 64.5137 36.2073 76.0092 50.3876 76.0092C64.5679 76.0092 76.0634 64.5137 76.0634 50.3334C76.0634 36.1531 64.5679 24.6577 50.3876 24.6577ZM50.3876 67.0002C41.1829 67.0002 33.7208 59.5381 33.7208 50.3334C33.7208 41.1287 41.1829 33.6666 50.3876 33.6666C59.5923 33.6666 67.0544 41.1287 67.0544 50.3334C67.0544 59.5381 59.5923 67.0002 50.3876 67.0002ZM83.0777 23.6432C83.0777 26.957 80.3915 29.6434 77.0778 29.6434C73.764 29.6434 71.0777 26.957 71.0777 23.6432C71.0777 20.3295 73.764 17.6433 77.0778 17.6433C80.3915 17.6433 83.0777 20.3295 83.0777 23.6432Z" fill="#1D1D1B"/>
</svg>
