<svg width="40" height="30" viewBox="0 0 40 30" fill="#1D1D1B" xmlns="http://www.w3.org/2000/svg">
<path   d="M26.6863 0.858245L39.4142 13.5862C40.1953 14.3672 40.1953 15.6335 39.4142 16.4146L26.6863 29.1425C25.9052 29.9236 24.6389 29.9236 23.8579 29.1425C23.0768 28.3615 23.0768 27.0951 23.8579 26.3141L33.1716 17.0004L2 17.0004C0.895432 17.0004 1.38412e-06 16.105 1.28756e-06 15.0004V15.0004C1.19099e-06 13.8958 0.89543 13.0004 2 13.0004L33.1716 13.0004L23.8579 3.68667C23.0768 2.90562 23.0768 1.63929 23.8579 0.858245C24.6389 0.0771966 25.9052 0.0771965 26.6863 0.858245Z" fill="#1D1D1B"/>
</svg>
