<svg width="1201" height="142" viewBox="0 0 1201 142" fill="none" xmlns="http://www.w3.org/2000/svg">
<path d="M54.4294 3.14612H4.40523C2.32631 3.14612 0.702148 4.88704 0.702148 6.96275V134.719C0.702148 136.862 2.39128 138.536 4.40523 138.536H16.8788C18.9577 138.536 20.5819 136.795 20.5819 134.719V82.6257H54.3644C79.6364 82.6257 97.3072 66.2209 97.3072 42.7185C97.3072 19.2161 79.7013 3.14612 54.4294 3.14612ZM54.2345 62.3374H20.6468V23.3006H54.2345C68.3322 23.3006 77.0377 30.733 77.0377 42.6516C77.0377 54.5702 68.0723 62.3374 54.2345 62.3374Z" fill="#1D1D1B"/>
<path d="M151.291 3.14612H138.558C136.512 3.14612 134.854 4.85488 134.854 6.96275V134.719C134.854 136.827 136.512 138.536 138.558 138.536H151.291C153.336 138.536 154.994 136.827 154.994 134.719V6.96275C154.994 4.85488 153.336 3.14612 151.291 3.14612Z" fill="#1D1D1B"/>
<path d="M288.628 118.183H217.685V79.1462H281.547C283.626 79.1462 285.25 77.4053 285.25 75.3295V62.8083C285.25 60.6657 283.561 58.9917 281.547 58.9917H217.685V23.3698H287.134C289.213 23.3698 290.837 21.6289 290.837 19.5532V7.03196C290.837 4.88929 289.148 3.21533 287.134 3.21533H201.638C199.624 3.21533 197.935 4.88929 197.87 7.03196V134.789C197.87 136.931 199.559 138.605 201.573 138.605H288.563C290.642 138.605 292.266 136.864 292.266 134.789V122.067C292.266 119.924 290.577 118.25 288.563 118.25L288.628 118.183Z" fill="#1D1D1B"/>
<path d="M418.44 118.114H349.185V6.96275C349.185 4.82008 347.496 3.14612 345.482 3.14612H333.009C332.034 3.14612 331.06 3.54787 330.345 4.28441C329.63 5.02095 329.306 6.02533 329.306 6.96275V134.719C329.306 136.862 330.995 138.536 333.009 138.536H418.505C420.583 138.536 422.208 136.795 422.208 134.719V121.997C422.208 119.855 420.518 118.181 418.505 118.181L418.44 118.114Z" fill="#1D1D1B"/>
<path d="M462.219 3.14612H474.887C476.966 3.14612 478.59 4.88704 478.59 6.96275V134.652C478.59 136.795 476.901 138.469 474.887 138.469H462.219C460.14 138.469 458.516 136.728 458.516 134.652V6.96275C458.516 4.82008 460.205 3.14612 462.219 3.14612Z" fill="#1D1D1B"/>
<path d="M620.61 3.14612H610.8C608.072 3.14612 605.798 5.4227 605.798 8.30192L605.408 59.4581L541.286 59.0564V8.30192C541.286 5.48966 539.078 3.14612 536.284 3.14612H526.474C523.745 3.14612 521.472 5.4227 521.472 8.30192V133.38C521.472 136.192 523.681 138.536 526.474 138.536H536.284C539.013 138.536 541.286 136.259 541.286 133.38L541.676 79.4787L605.798 79.8805V133.38C605.798 136.192 608.007 138.536 610.8 138.536H620.61C623.339 138.536 625.613 136.259 625.613 133.38V8.30192C625.613 5.48966 623.339 3.14612 620.61 3.14612Z" fill="#1D1D1B"/>
<path d="M765.287 3.14612H752.814C750.735 3.14612 749.111 4.88704 749.111 6.96275V86.978C749.111 109.543 738.001 121.462 717.017 121.462C696.033 121.462 685.768 109.476 685.768 86.8441V6.96275C685.768 4.82008 684.079 3.14612 682.065 3.14612H669.592C667.513 3.14612 665.889 4.88704 665.889 6.96275V86.7772C665.889 121.729 684.534 141.817 717.082 141.817C749.63 141.817 769.12 121.328 769.12 86.978V6.96275C769.12 4.82008 767.431 3.14612 765.417 3.14612H765.287Z" fill="#1D1D1B"/>
<path d="M900.158 118.183H829.215V79.1462H893.077C895.156 79.1462 896.78 77.4053 896.78 75.3295V62.8083C896.78 60.6657 895.091 58.9917 893.077 58.9917H829.215V23.3698H898.664C900.743 23.3698 902.367 21.6289 902.367 19.5532V7.03196C902.367 4.88929 900.678 3.21533 898.664 3.21533H813.168C811.089 3.21533 809.465 4.95625 809.465 7.03196V134.789C809.465 136.931 811.154 138.605 813.168 138.605H900.158C902.237 138.605 903.861 136.864 903.861 134.789V122.067C903.861 119.924 902.172 118.25 900.158 118.25V118.183Z" fill="#1D1D1B"/>
<path d="M993.259 58.6556C967.467 50.4866 962.205 43.5899 962.205 35.7558C962.205 26.0468 971.365 20.2214 986.697 20.2214C1002.03 20.2214 1011.9 26.6494 1015.35 40.5098C1015.87 42.5186 1017.82 43.7908 1019.76 43.3221L1032.63 40.4429C1033.6 40.242 1034.51 39.5724 1035.03 38.702C1035.55 37.8315 1035.75 36.7602 1035.49 35.7558C1029.57 12.0525 1013.33 0 987.087 0C959.151 0 941.805 13.7265 941.805 35.8897C941.805 55.6424 955.708 68.9672 985.593 77.7387C1008.4 84.5685 1018.14 91.8 1018.14 101.844C1018.14 113.361 1006.25 121.396 989.231 121.396C972.21 121.396 961.36 113.093 958.177 96.621C957.787 94.5453 955.773 93.2061 953.824 93.6078L937.907 96.8888L938.297 99.1654C942.715 126.618 961.1 141.818 990.14 141.818C1019.51 141.818 1038.48 126.15 1038.48 101.911C1038.48 81.7562 1024.57 68.3645 993.389 58.6556H993.259Z" fill="#1D1D1B"/>
<path d="M1136.52 0C1099.03 0 1071.87 29.9974 1071.87 71.3107C1071.87 112.624 1099.09 141.751 1136.52 141.751C1173.94 141.751 1200.7 112.088 1200.7 71.3107C1200.7 30.533 1173.74 0 1136.52 0ZM1136.52 121.596C1111.31 121.596 1092.99 100.371 1092.99 71.1768C1092.99 41.9829 1110.92 20.4223 1136.52 20.4223C1162.11 20.4223 1179.91 41.3133 1179.91 71.1768C1179.91 101.04 1161.66 121.596 1136.52 121.596Z" fill="#1D1D1B"/>
</svg>
